<?xml version="1.0" encoding="UTF-8" standalone="no"?><svg xmlns="http://www.w3.org/2000/svg" xmlns:xlink="http://www.w3.org/1999/xlink" contentScriptType="application/ecmascript" contentStyleType="text/css" height="889px" preserveAspectRatio="none" style="width:546px;height:889px;" version="1.1" viewBox="0 0 546 889" width="546px" zoomAndPan="magnify"><defs><filter height="300%" id="frj8o66rvjubn" width="300%" x="-1" y="-1"><feGaussianBlur result="blurOut" stdDeviation="2.0"/><feColorMatrix in="blurOut" result="blurOut2" type="matrix" values="0 0 0 0 0 0 0 0 0 0 0 0 0 0 0 0 0 0 .4 0"/><feOffset dx="4.0" dy="4.0" in="blurOut2" result="blurOut3"/><feBlend in="SourceGraphic" in2="blurOut3" mode="normal"/></filter></defs><g><text fill="#000000" font-family="sans-serif" font-size="18" lengthAdjust="spacingAndGlyphs" textLength="463" x="44.5" y="16.708">Компонентная диаграмма системы каршеринга</text><!--MD5=[0ba5ee7700168656dc1b457c6fe9fdac]
entity Client--><ellipse cx="228.5" cy="38.4531" fill="#FEFECE" filter="url(#frj8o66rvjubn)" rx="8" ry="8" style="stroke: #A80036; stroke-width: 1.5;"/><path d="M228.5,46.4531 L228.5,73.4531 M215.5,54.4531 L241.5,54.4531 M228.5,73.4531 L215.5,88.4531 M228.5,73.4531 L241.5,88.4531 " fill="none" filter="url(#frj8o66rvjubn)" style="stroke: #A80036; stroke-width: 1.5;"/><text fill="#000000" font-family="sans-serif" font-size="14" lengthAdjust="spacingAndGlyphs" textLength="55" x="201" y="106.9482">Клиент</text><!--MD5=[327d8b0cc9017ef0d2f4054fa6547e20]
entity Manager--><ellipse cx="382.5" cy="38.4531" fill="#FEFECE" filter="url(#frj8o66rvjubn)" rx="8" ry="8" style="stroke: #A80036; stroke-width: 1.5;"/><path d="M382.5,46.4531 L382.5,73.4531 M369.5,54.4531 L395.5,54.4531 M382.5,73.4531 L369.5,88.4531 M382.5,73.4531 L395.5,88.4531 " fill="none" filter="url(#frj8o66rvjubn)" style="stroke: #A80036; stroke-width: 1.5;"/><text fill="#000000" font-family="sans-serif" font-size="14" lengthAdjust="spacingAndGlyphs" textLength="80" x="342.5" y="106.9482">Менеджер</text><!--MD5=[1f684f0298694fdc450f2524689bdb7b]
entity Payment--><path d="M427,580.9531 C427,570.9531 480.5,570.9531 480.5,570.9531 C480.5,570.9531 534,570.9531 534,580.9531 L534,622.5469 C534,632.5469 480.5,632.5469 480.5,632.5469 C480.5,632.5469 427,632.5469 427,622.5469 L427,580.9531 " fill="#99FF99" filter="url(#frj8o66rvjubn)" style="stroke: #000000; stroke-width: 1.5;"/><path d="M427,580.9531 C427,590.9531 480.5,590.9531 480.5,590.9531 C480.5,590.9531 534,590.9531 534,580.9531 " fill="none" style="stroke: #000000; stroke-width: 1.5;"/><text fill="#000000" font-family="sans-serif" font-size="14" lengthAdjust="spacingAndGlyphs" textLength="87" x="437" y="607.9482">Платежный</text><text fill="#000000" font-family="sans-serif" font-size="14" lengthAdjust="spacingAndGlyphs" textLength="42" x="437" y="624.2451">шлюз</text><!--MD5=[ccb2b75c31fa335fc10d43c117cba2f7]
entity Car--><path d="M85,825.9531 C85,815.9531 147.5,815.9531 147.5,815.9531 C147.5,815.9531 210,815.9531 210,825.9531 L210,867.5469 C210,877.5469 147.5,877.5469 147.5,877.5469 C147.5,877.5469 85,877.5469 85,867.5469 L85,825.9531 " fill="#99FF99" filter="url(#frj8o66rvjubn)" style="stroke: #000000; stroke-width: 1.5;"/><path d="M85,825.9531 C85,835.9531 147.5,835.9531 147.5,835.9531 C147.5,835.9531 210,835.9531 210,825.9531 " fill="none" style="stroke: #000000; stroke-width: 1.5;"/><text fill="#000000" font-family="sans-serif" font-size="14" lengthAdjust="spacingAndGlyphs" textLength="72" x="95" y="852.9482">Бортовое</text><text fill="#000000" font-family="sans-serif" font-size="14" lengthAdjust="spacingAndGlyphs" textLength="105" x="95" y="869.2451">оборудование</text><!--MD5=[517b598320f5bedcf68bf0ad94f223c8]
entity Notifications--><polygon fill="#FEFECE" filter="url(#frj8o66rvjubn)" points="309,702.9531,319,692.9531,422,692.9531,422,745.5469,412,755.5469,309,755.5469,309,702.9531" style="stroke: #000000; stroke-width: 1.5;"/><line style="stroke: #000000; stroke-width: 1.5;" x1="412" x2="421" y1="702.9531" y2="693.9531"/><line style="stroke: #000000; stroke-width: 1.5;" x1="309" x2="412" y1="702.9531" y2="702.9531"/><line style="stroke: #000000; stroke-width: 1.5;" x1="412" x2="412" y1="702.9531" y2="755.5469"/><text fill="#000000" font-family="sans-serif" font-size="14" lengthAdjust="spacingAndGlyphs" textLength="73" x="324" y="725.9482">СМС/Email</text><text fill="#000000" font-family="sans-serif" font-size="14" lengthAdjust="spacingAndGlyphs" textLength="51" x="324" y="742.2451">сервис</text><!--MD5=[6e8f311b0aa23032184ffba0ef926f91]
entity App--><rect fill="#ADD8E6" filter="url(#frj8o66rvjubn)" height="52.5938" style="stroke: #A80036; stroke-width: 1.5;" width="114" x="171.5" y="169.9531"/><rect fill="#ADD8E6" height="5" style="stroke: #A80036; stroke-width: 1.5;" width="10" x="166.5" y="174.9531"/><rect fill="#ADD8E6" height="5" style="stroke: #A80036; stroke-width: 1.5;" width="10" x="166.5" y="212.5469"/><text fill="#000000" font-family="sans-serif" font-size="14" lengthAdjust="spacingAndGlyphs" textLength="83" x="181.5" y="192.9482">Мобильное</text><text fill="#000000" font-family="sans-serif" font-size="14" lengthAdjust="spacingAndGlyphs" textLength="94" x="181.5" y="209.2451">приложение</text><!--MD5=[97ab183161fd5d1db7fba7485cf76add]
entity Admin--><rect fill="#ADD8E6" filter="url(#frj8o66rvjubn)" height="36.2969" style="stroke: #A80036; stroke-width: 1.5;" width="123" x="321" y="178.4531"/><rect fill="#ADD8E6" height="5" style="stroke: #A80036; stroke-width: 1.5;" width="10" x="316" y="183.4531"/><rect fill="#ADD8E6" height="5" style="stroke: #A80036; stroke-width: 1.5;" width="10" x="316" y="204.75"/><text fill="#000000" font-family="sans-serif" font-size="14" lengthAdjust="spacingAndGlyphs" textLength="103" x="331" y="201.4482">Админ панель</text><!--MD5=[49cbbb1648246ecd0e2d56eda0c19f08]
entity Gateway--><rect fill="#90EE90" filter="url(#frj8o66rvjubn)" height="36.2969" style="stroke: #A80036; stroke-width: 1.5;" width="89" x="261" y="282.9531"/><rect fill="#90EE90" height="5" style="stroke: #A80036; stroke-width: 1.5;" width="10" x="256" y="287.9531"/><rect fill="#90EE90" height="5" style="stroke: #A80036; stroke-width: 1.5;" width="10" x="256" y="309.25"/><text fill="#000000" font-family="sans-serif" font-size="14" lengthAdjust="spacingAndGlyphs" textLength="69" x="271" y="305.9482">API Шлюз</text><!--MD5=[9259df9c7a9e3b24d57271e7ca935ecb]
entity Booking--><rect fill="#FEFECE" filter="url(#frj8o66rvjubn)" height="36.2969" style="stroke: #A80036; stroke-width: 1.5;" width="182" x="70.5" y="378.9531"/><rect fill="#FEFECE" height="5" style="stroke: #A80036; stroke-width: 1.5;" width="10" x="65.5" y="383.9531"/><rect fill="#FEFECE" height="5" style="stroke: #A80036; stroke-width: 1.5;" width="10" x="65.5" y="405.25"/><text fill="#000000" font-family="sans-serif" font-size="14" lengthAdjust="spacingAndGlyphs" textLength="162" x="80.5" y="401.9482">Сервис бронирования</text><!--MD5=[814bccfa430f2e17d2121685f97063ec]
entity Vehicles--><rect fill="#FEFECE" filter="url(#frj8o66rvjubn)" height="36.2969" style="stroke: #A80036; stroke-width: 1.5;" width="175" x="6" y="474.9531"/><rect fill="#FEFECE" height="5" style="stroke: #A80036; stroke-width: 1.5;" width="10" x="1" y="479.9531"/><rect fill="#FEFECE" height="5" style="stroke: #A80036; stroke-width: 1.5;" width="10" x="1" y="501.25"/><text fill="#000000" font-family="sans-serif" font-size="14" lengthAdjust="spacingAndGlyphs" textLength="155" x="16" y="497.9482">Сервис автомобилей</text><!--MD5=[8a394f96b0ce110dbdfdee486f17d343]
entity Billing--><rect fill="#FEFECE" filter="url(#frj8o66rvjubn)" height="36.2969" style="stroke: #A80036; stroke-width: 1.5;" width="82" x="429.5" y="474.9531"/><rect fill="#FEFECE" height="5" style="stroke: #A80036; stroke-width: 1.5;" width="10" x="424.5" y="479.9531"/><rect fill="#FEFECE" height="5" style="stroke: #A80036; stroke-width: 1.5;" width="10" x="424.5" y="501.25"/><text fill="#000000" font-family="sans-serif" font-size="14" lengthAdjust="spacingAndGlyphs" textLength="62" x="439.5" y="497.9482">Биллинг</text><!--MD5=[ff8ff1b9124d8226c243bd0d10adfb7e]
entity CRM--><rect fill="#FEFECE" filter="url(#frj8o66rvjubn)" height="36.2969" style="stroke: #A80036; stroke-width: 1.5;" width="52" x="339.5" y="583.9531"/><rect fill="#FEFECE" height="5" style="stroke: #A80036; stroke-width: 1.5;" width="10" x="334.5" y="588.9531"/><rect fill="#FEFECE" height="5" style="stroke: #A80036; stroke-width: 1.5;" width="10" x="334.5" y="610.25"/><text fill="#000000" font-family="sans-serif" font-size="14" lengthAdjust="spacingAndGlyphs" textLength="32" x="349.5" y="606.9482">CRM</text><!--MD5=[644e642b28121d0fddd5a7891d0722c0]
entity Geo--><rect fill="#FEFECE" filter="url(#frj8o66rvjubn)" height="36.2969" style="stroke: #A80036; stroke-width: 1.5;" width="107" x="147" y="583.9531"/><rect fill="#FEFECE" height="5" style="stroke: #A80036; stroke-width: 1.5;" width="10" x="142" y="588.9531"/><rect fill="#FEFECE" height="5" style="stroke: #A80036; stroke-width: 1.5;" width="10" x="142" y="610.25"/><text fill="#000000" font-family="sans-serif" font-size="14" lengthAdjust="spacingAndGlyphs" textLength="87" x="157" y="606.9482">Геолокация</text><!--MD5=[64b34e423fa734153085153873f6d104]
entity Telematics--><rect fill="#FEFECE" filter="url(#frj8o66rvjubn)" height="36.2969" style="stroke: #A80036; stroke-width: 1.5;" width="108" x="93.5" y="706.4531"/><rect fill="#FEFECE" height="5" style="stroke: #A80036; stroke-width: 1.5;" width="10" x="88.5" y="711.4531"/><rect fill="#FEFECE" height="5" style="stroke: #A80036; stroke-width: 1.5;" width="10" x="88.5" y="732.75"/><text fill="#000000" font-family="sans-serif" font-size="14" lengthAdjust="spacingAndGlyphs" textLength="88" x="103.5" y="729.4482">Телематика</text><!--MD5=[0a1f1cb1f753f459681f2fa6a4db0c75]
link Client to App--><path d="M228.5,110.0031 C228.5,127.6131 228.5,148.0431 228.5,164.5131 " fill="none" id="Client-&gt;App" style="stroke: #A80036; stroke-width: 1.0;"/><polygon fill="#A80036" points="228.5,169.9331,232.5,160.9331,228.5,164.9331,224.5,160.9331,228.5,169.9331" style="stroke: #A80036; stroke-width: 1.0;"/><!--MD5=[b2f1104e1f98f514fcb4453fb19e8eb4]
link Manager to Admin--><path d="M382.5,110.0031 C382.5,130.8731 382.5,155.7131 382.5,173.2131 " fill="none" id="Manager-&gt;Admin" style="stroke: #A80036; stroke-width: 1.0;"/><polygon fill="#A80036" points="382.5,178.4031,386.5,169.4031,382.5,173.4031,378.5,169.4031,382.5,178.4031" style="stroke: #A80036; stroke-width: 1.0;"/><!--MD5=[dc2f146e6c73ffb132164e90784cc9b1]
link App to Gateway--><path d="M247.73,223.0531 C260.52,240.0731 277.12,262.1731 289.25,278.3131 " fill="none" id="App-&gt;Gateway" style="stroke: #A80036; stroke-width: 1.0;"/><polygon fill="#A80036" points="292.54,282.7031,290.34,273.1031,289.54,278.7031,283.94,277.9031,292.54,282.7031" style="stroke: #A80036; stroke-width: 1.0;"/><!--MD5=[08e4dc3319c42cf6c2761fa3afa7ae50]
link Admin to Gateway--><path d="M369.44,214.8431 C356.19,232.4731 335.68,259.7731 321.48,278.6831 " fill="none" id="Admin-&gt;Gateway" style="stroke: #A80036; stroke-width: 1.0;"/><polygon fill="#A80036" points="318.37,282.8231,326.97,278.0231,321.37,278.8231,320.57,273.2231,318.37,282.8231" style="stroke: #A80036; stroke-width: 1.0;"/><!--MD5=[3cf5126edf53a4cdd157d2dfee5a592d]
link Gateway to Booking--><path d="M279.42,318.9731 C254.91,334.9831 218.2,358.9431 192.26,375.8731 " fill="none" id="Gateway-&gt;Booking" style="stroke: #A80036; stroke-width: 1.0;"/><polygon fill="#A80036" points="187.87,378.7431,197.5939,377.1792,192.0586,376.0127,193.2251,370.4774,187.87,378.7431" style="stroke: #A80036; stroke-width: 1.0;"/><!--MD5=[618da5d9b32c84828d73a2fe036ce3d7]
link Gateway to Vehicles--><path d="M260.81,309.0731 C195.08,320.5631 77.41,345.3331 52.5,378.9531 C31.71,407.0131 55.61,446.6631 74.67,470.7731 " fill="none" id="Gateway-&gt;Vehicles" style="stroke: #A80036; stroke-width: 1.0;"/><polygon fill="#A80036" points="77.91,474.7931,75.3602,465.28,74.7657,470.9056,69.1401,470.311,77.91,474.7931" style="stroke: #A80036; stroke-width: 1.0;"/><!--MD5=[fdb09f818269fe0843ce25fd65df4de8]
link Gateway to Billing--><path d="M331.94,319.0331 C352.75,333.3431 381.64,355.2031 402.5,378.9531 C427.43,407.3331 448.47,446.0731 460.28,470.0231 " fill="none" id="Gateway-&gt;Billing" style="stroke: #A80036; stroke-width: 1.0;"/><polygon fill="#A80036" points="462.52,474.6131,462.1736,464.7704,460.3299,470.1183,454.9819,468.2746,462.52,474.6131" style="stroke: #A80036; stroke-width: 1.0;"/><!--MD5=[87b59e401e0c75dc1a7c7b091c5e788c]
link Gateway to CRM--><path d="M312.26,319.1331 C318.1,334.5731 326.39,357.9731 331.5,378.9531 C349.02,450.9231 359.26,538.3331 363.38,578.6331 " fill="none" id="Gateway-&gt;CRM" style="stroke: #A80036; stroke-width: 1.0;"/><polygon fill="#A80036" points="363.9,583.7631,366.982,574.4089,363.4011,578.7881,359.0219,575.2072,363.9,583.7631" style="stroke: #A80036; stroke-width: 1.0;"/><!--MD5=[868a7b2583013f26ecaf7905d4599503]
link Gateway to Geo--><path d="M300.26,319.2631 C293.46,341.5131 281.1,381.2731 269.5,414.9531 C248.91,474.7031 222.39,544.3431 209.02,579.0131 " fill="none" id="Gateway-&gt;Geo" style="stroke: #A80036; stroke-width: 1.0;"/><polygon fill="#A80036" points="207.14,583.8731,214.1085,576.9132,208.9378,579.2075,206.6435,574.0368,207.14,583.8731" style="stroke: #A80036; stroke-width: 1.0;"/><!--MD5=[0ab7336ca6995f000edd595946fa7aae]
link Booking to Vehicles--><path d="M138.9,415.1931 C124.48,430.6931 107.69,453.5431 98.25,470.2731 " fill="none" id="Booking-&gt;Vehicles" style="stroke: #A80036; stroke-width: 1.0;"/><polygon fill="#A80036" points="95.78,474.8231,103.5711,468.7983,98.1522,470.4217,96.5288,465.0028,95.78,474.8231" style="stroke: #A80036; stroke-width: 1.0;"/><!--MD5=[12ca00915bd220811f67f225259a7773]
link Vehicles to Booking--><path d="M116.6,474.8231 C131.19,459.3531 148.01,436.5131 157.33,419.7531 " fill="none" id="Vehicles-&gt;Booking" style="stroke: #A80036; stroke-width: 1.0;"/><polygon fill="#A80036" points="159.76,415.1931,151.9922,421.248,157.4048,419.6037,159.0492,425.0163,159.76,415.1931" style="stroke: #A80036; stroke-width: 1.0;"/><!--MD5=[17b0e77c2d2c30078a839c86fd8da5a4]
link Booking to Billing--><path d="M217.46,414.9731 C276.71,433.0031 369.16,461.1231 424.38,477.9231 " fill="none" id="Booking-&gt;Billing" style="stroke: #A80036; stroke-width: 1.0;"/><polygon fill="#A80036" points="429.28,479.4131,421.8353,472.9651,424.4968,477.9567,419.5051,480.6182,429.28,479.4131" style="stroke: #A80036; stroke-width: 1.0;"/><!--MD5=[77d6f0499d931528c2de0a72a31b87f4]
link Booking to CRM--><path d="M178.89,415.2631 C216.23,452.4131 303.94,539.6931 344.39,579.9431 " fill="none" id="Booking-&gt;CRM" style="stroke: #A80036; stroke-width: 1.0;"/><polygon fill="#A80036" points="348.15,583.6931,344.5959,574.5079,344.6073,580.1647,338.9505,580.1762,348.15,583.6931" style="stroke: #A80036; stroke-width: 1.0;"/><!--MD5=[2e00321799c924bd52690599f954df3b]
link Vehicles to Telematics--><path d="M97.56,511.2031 C107.22,552.2531 131.57,655.7331 142.29,701.3131 " fill="none" id="Vehicles-&gt;Telematics" style="stroke: #A80036; stroke-width: 1.0;"/><polygon fill="#A80036" points="143.47,706.3131,145.3086,696.6374,142.328,701.4453,137.5201,698.4646,143.47,706.3131" style="stroke: #A80036; stroke-width: 1.0;"/><!--MD5=[e9906c68f1a83c425b586aef7cb63601]
link Vehicles to Geo--><path d="M110.69,511.1431 C129.41,529.8631 159.36,559.8131 179.47,579.9231 " fill="none" id="Vehicles-&gt;Geo" style="stroke: #A80036; stroke-width: 1.0;"/><polygon fill="#A80036" points="183.35,583.8031,179.8145,574.6107,179.8145,580.2676,174.1576,580.2676,183.35,583.8031" style="stroke: #A80036; stroke-width: 1.0;"/><!--MD5=[ea6bab730baa8eb898eef33000488a44]
link Telematics to Car--><path d="M147.5,742.4631 C147.5,760.0031 147.5,787.8631 147.5,810.2731 " fill="none" id="Telematics-&gt;Car" style="stroke: #A80036; stroke-width: 1.0;"/><polygon fill="#A80036" points="147.5,815.5431,151.5,806.5431,147.5,810.5431,143.5,806.5431,147.5,815.5431" style="stroke: #A80036; stroke-width: 1.0;"/><!--MD5=[d1eb0d5410ef860734688e1bba5f5322]
link Billing to Payment--><path d="M472.11,511.1431 C473.48,525.8331 475.5,547.4331 477.21,565.7731 " fill="none" id="Billing-&gt;Payment" style="stroke: #A80036; stroke-width: 1.0;"/><polygon fill="#A80036" points="477.69,570.8431,480.8225,561.5057,477.218,565.8655,472.8582,562.2609,477.69,570.8431" style="stroke: #A80036; stroke-width: 1.0;"/><!--MD5=[e6d708fbf67b47783ab7468fe2ca7915]
link CRM to Notifications--><path d="M365.5,619.9631 C365.5,637.3831 365.5,664.9831 365.5,687.3131 " fill="none" id="CRM-&gt;Notifications" style="stroke: #A80036; stroke-width: 1.0;"/><polygon fill="#A80036" points="365.5,692.5631,369.5,683.5631,365.5,687.5631,361.5,683.5631,365.5,692.5631" style="stroke: #A80036; stroke-width: 1.0;"/><!--MD5=[c97d9111c93d677fb9cb34b4ab5a9118]
link Geo to Telematics--><path d="M193.02,619.9631 C183.64,641.2831 167.55,677.8731 157.23,701.3431 " fill="none" id="Geo-&gt;Telematics" style="stroke: #A80036; stroke-width: 1.0;"/><polygon fill="#A80036" points="155.11,706.1431,162.382,699.501,157.1141,701.5623,155.0527,696.2944,155.11,706.1431" style="stroke: #A80036; stroke-width: 1.0;"/><!--MD5=[718bddeb4b5cd917d702321a46d50c2e]
link Billing to CRM--><path d="M453.63,511.1431 C435.26,529.8631 405.87,559.8131 386.14,579.9231 " fill="none" id="Billing-&gt;CRM" style="stroke: #A80036; stroke-width: 1.0;"/><polygon fill="#A80036" points="382.33,583.8031,391.4862,580.1749,385.8296,580.2321,385.7725,574.5755,382.33,583.8031" style="stroke: #A80036; stroke-width: 1.0;"/><!--MD5=[3e8e339088ccf693e9cd54fc6da8775f]
@startuml
title  Компонентная диаграмма системы каршеринга

actor "Клиент" as Client
actor "Менеджер" as Manager
database "Платежный\nшлюз" as Payment #99FF99
database "Бортовое\nоборудование" as Car #99FF99
node "СМС/Email\nсервис" as Notifications

component "Мобильное\nприложение" as App #lightblue
component "Админ панель" as Admin #lightblue
component "API Шлюз" as Gateway #lightgreen

component "Сервис бронирования" as Booking
component "Сервис автомобилей" as Vehicles
component "Биллинг" as Billing
component "CRM" as CRM

component "Геолокация" as Geo
component "Телематика" as Telematics

Client - -> App
Manager - -> Admin

App - -> Gateway
Admin - -> Gateway

Gateway - -> Booking
Gateway - -> Vehicles
Gateway - -> Billing
Gateway - -> CRM
Gateway - -> Geo

Booking - -> Vehicles
Booking - -> Billing
Booking - -> CRM

Vehicles - -> Telematics
Vehicles - -> Geo

Telematics - -> Car
Billing - -> Payment
CRM - -> Notifications

Geo - -> Telematics

Billing - -> CRM
Vehicles - -> Booking

@enduml

PlantUML version 1.2020.02(Sun Mar 01 10:22:07 UTC 2020)
(GPL source distribution)
Java Runtime: OpenJDK Runtime Environment
JVM: OpenJDK 64-Bit Server VM
Java Version: 17.0.16+8
Operating System: Linux
Default Encoding: UTF-8
Language: en
Country: null
--></g></svg>