<?xml version="1.0" encoding="UTF-8" standalone="no"?><svg xmlns="http://www.w3.org/2000/svg" xmlns:xlink="http://www.w3.org/1999/xlink" contentScriptType="application/ecmascript" contentStyleType="text/css" height="550px" preserveAspectRatio="none" style="width:1842px;height:550px;" version="1.1" viewBox="0 0 1842 550" width="1842px" zoomAndPan="magnify"><defs><filter height="300%" id="f1anqof34n2a1p" width="300%" x="-1" y="-1"><feGaussianBlur result="blurOut" stdDeviation="2.0"/><feColorMatrix in="blurOut" result="blurOut2" type="matrix" values="0 0 0 0 0 0 0 0 0 0 0 0 0 0 0 0 0 0 .4 0"/><feOffset dx="4.0" dy="4.0" in="blurOut2" result="blurOut3"/><feBlend in="SourceGraphic" in2="blurOut3" mode="normal"/></filter></defs><g><!--MD5=[61b138bab6150f84fd47de656412d600]
cluster Recommendation System--><rect fill="#FFFFFF" filter="url(#f1anqof34n2a1p)" height="424.5" style="stroke: #000000; stroke-width: 1.5;" width="1361" x="111" y="114.5"/><text fill="#000000" font-family="sans-serif" font-size="14" font-weight="bold" lengthAdjust="spacingAndGlyphs" textLength="199" x="692" y="129.4951">Recommendation System</text><!--MD5=[751dc02a382be3d1bb9ed4c0c603f200]
cluster RE--><rect fill="#FFFFFF" filter="url(#f1anqof34n2a1p)" height="213" style="stroke: #000000; stroke-width: 1.5;" width="452" x="431" y="209.5"/><rect fill="#FFFFFF" height="10" style="stroke: #000000; stroke-width: 1.5;" width="15" x="863" y="214.5"/><rect fill="#FFFFFF" height="2" style="stroke: #000000; stroke-width: 1.5;" width="4" x="861" y="216.5"/><rect fill="#FFFFFF" height="2" style="stroke: #000000; stroke-width: 1.5;" width="4" x="861" y="220.5"/><text fill="#000000" font-family="sans-serif" font-size="14" font-weight="bold" lengthAdjust="spacingAndGlyphs" textLength="194" x="560" y="235.4951">Recommendation Engine</text><!--MD5=[43a623c875ebdfe30944bd5a8304cbdd]
entity UBT--><rect fill="#FEFECE" filter="url(#f1anqof34n2a1p)" height="36.2969" style="stroke: #A80036; stroke-width: 1.5;" width="172" x="775" y="149.5"/><rect fill="#FEFECE" height="5" style="stroke: #A80036; stroke-width: 1.5;" width="10" x="770" y="154.5"/><rect fill="#FEFECE" height="5" style="stroke: #A80036; stroke-width: 1.5;" width="10" x="770" y="175.7969"/><text fill="#000000" font-family="sans-serif" font-size="14" lengthAdjust="spacingAndGlyphs" textLength="152" x="785" y="172.4951">User Behavior Tracker</text><!--MD5=[7a2008881edc513c866d32deab48a493]
entity DIS--><rect fill="#FEFECE" filter="url(#f1anqof34n2a1p)" height="36.2969" style="stroke: #A80036; stroke-width: 1.5;" width="174" x="233" y="252.5"/><rect fill="#FEFECE" height="5" style="stroke: #A80036; stroke-width: 1.5;" width="10" x="228" y="257.5"/><rect fill="#FEFECE" height="5" style="stroke: #A80036; stroke-width: 1.5;" width="10" x="228" y="278.7969"/><text fill="#000000" font-family="sans-serif" font-size="14" lengthAdjust="spacingAndGlyphs" textLength="154" x="243" y="275.4951">Data Ingestion Service</text><!--MD5=[0de3afc3b27e03e3f38d37c4c0980b4c]
entity UP--><rect fill="#FEFECE" filter="url(#f1anqof34n2a1p)" height="36.2969" style="stroke: #A80036; stroke-width: 1.5;" width="103" x="127.5" y="149.5"/><rect fill="#FEFECE" height="5" style="stroke: #A80036; stroke-width: 1.5;" width="10" x="122.5" y="154.5"/><rect fill="#FEFECE" height="5" style="stroke: #A80036; stroke-width: 1.5;" width="10" x="122.5" y="175.7969"/><text fill="#000000" font-family="sans-serif" font-size="14" lengthAdjust="spacingAndGlyphs" textLength="83" x="137.5" y="172.4951">User Profiler</text><!--MD5=[138cbd5458a0b96ea5ba34c330a56d39]
entity RS--><rect fill="#FEFECE" filter="url(#f1anqof34n2a1p)" height="36.2969" style="stroke: #A80036; stroke-width: 1.5;" width="197" x="1258.5" y="362.5"/><rect fill="#FEFECE" height="5" style="stroke: #A80036; stroke-width: 1.5;" width="10" x="1253.5" y="367.5"/><rect fill="#FEFECE" height="5" style="stroke: #A80036; stroke-width: 1.5;" width="10" x="1253.5" y="388.7969"/><text fill="#000000" font-family="sans-serif" font-size="14" lengthAdjust="spacingAndGlyphs" textLength="177" x="1268.5" y="385.4951">Recommendation Service</text><!--MD5=[c46a6d84536defc07209250539170126]
entity IAL--><ellipse cx="189" cy="270.5" fill="#FEFECE" filter="url(#f1anqof34n2a1p)" rx="8" ry="8" style="stroke: #A80036; stroke-width: 2.0;"/><text fill="#000000" font-family="sans-serif" font-size="14" lengthAdjust="spacingAndGlyphs" textLength="98" x="140" y="300.4951">IActivityLogger</text><!--MD5=[3aee0293703c58b32f89b1b0c9b0c3c4]
entity IRE--><ellipse cx="916" cy="380.5" fill="#FEFECE" filter="url(#f1anqof34n2a1p)" rx="8" ry="8" style="stroke: #A80036; stroke-width: 2.0;"/><text fill="#000000" font-family="sans-serif" font-size="14" lengthAdjust="spacingAndGlyphs" textLength="57" x="887.5" y="410.4951">IRecEng</text><!--MD5=[503f9ccf7b70c45ca861821799f73964]
entity IUPR--><ellipse cx="136" cy="270.5" fill="#FEFECE" filter="url(#f1anqof34n2a1p)" rx="8" ry="8" style="stroke: #A80036; stroke-width: 2.0;"/><text fill="#000000" font-family="sans-serif" font-size="14" lengthAdjust="spacingAndGlyphs" textLength="127" x="72.5" y="300.4951">IUserProfileReader</text><path d="M518,468 L518,523.3984 A0,0 0 0 0 518,523.3984 L784,523.3984 A0,0 0 0 0 784,523.3984 L784,478 L774,468 L655,468 L651,398.72 L647,468 L518,468 A0,0 0 0 0 518,468 " fill="#FBFB77" filter="url(#f1anqof34n2a1p)" style="stroke: #A80036; stroke-width: 1.0;"/><path d="M774,468 L774,478 L784,478 L774,468 " fill="#FBFB77" style="stroke: #A80036; stroke-width: 1.0;"/><text fill="#000000" font-family="sans-serif" font-size="13" lengthAdjust="spacingAndGlyphs" textLength="242" x="524" y="485.0669">Комбинирует подходы Collaborative</text><text fill="#000000" font-family="sans-serif" font-size="13" lengthAdjust="spacingAndGlyphs" textLength="189" x="524" y="500.1997">и Content-Based filtering для</text><text fill="#000000" font-family="sans-serif" font-size="13" lengthAdjust="spacingAndGlyphs" textLength="245" x="524" y="515.3325">улучшения качества рекомендаций</text><path d="M960.5,353 L960.5,408.3984 A0,0 0 0 0 960.5,408.3984 L1223.5,408.3984 A0,0 0 0 0 1223.5,408.3984 L1223.5,385 L1258.46,381 L1223.5,377 L1223.5,363 L1213.5,353 L960.5,353 A0,0 0 0 0 960.5,353 " fill="#FBFB77" filter="url(#f1anqof34n2a1p)" style="stroke: #A80036; stroke-width: 1.0;"/><path d="M1213.5,353 L1213.5,363 L1223.5,363 L1213.5,353 " fill="#FBFB77" style="stroke: #A80036; stroke-width: 1.0;"/><text fill="#000000" font-family="sans-serif" font-size="13" lengthAdjust="spacingAndGlyphs" textLength="182" x="966.5" y="370.0669">Основной сервис, который</text><text fill="#000000" font-family="sans-serif" font-size="13" lengthAdjust="spacingAndGlyphs" textLength="242" x="966.5" y="385.1997">взаимодействует с пользователем</text><text fill="#000000" font-family="sans-serif" font-size="13" lengthAdjust="spacingAndGlyphs" textLength="200" x="966.5" y="400.3325">и возвращает рекомендации</text><path d="M157,353 L157,408.3984 A0,0 0 0 0 157,408.3984 L407,408.3984 A0,0 0 0 0 407,408.3984 L407,363 L397,353 L324,353 L320,288.66 L316,353 L157,353 A0,0 0 0 0 157,353 " fill="#FBFB77" filter="url(#f1anqof34n2a1p)" style="stroke: #A80036; stroke-width: 1.0;"/><path d="M397,353 L397,363 L407,363 L397,353 " fill="#FBFB77" style="stroke: #A80036; stroke-width: 1.0;"/><text fill="#000000" font-family="sans-serif" font-size="13" lengthAdjust="spacingAndGlyphs" textLength="229" x="163" y="370.0669">Сервис приема данных. Получает</text><text fill="#000000" font-family="sans-serif" font-size="13" lengthAdjust="spacingAndGlyphs" textLength="193" x="163" y="385.1997">сырые данные от трекера и</text><text fill="#000000" font-family="sans-serif" font-size="13" lengthAdjust="spacingAndGlyphs" textLength="172" x="163" y="400.3325">сохраняет в базу данных</text><!--MD5=[def1ebe1b81388e86d861dee1613fad9]
entity CF--><rect fill="#FEFECE" filter="url(#f1anqof34n2a1p)" height="36.2969" style="stroke: #A80036; stroke-width: 1.5;" width="166" x="674" y="252.5"/><rect fill="#FEFECE" height="5" style="stroke: #A80036; stroke-width: 1.5;" width="10" x="669" y="257.5"/><rect fill="#FEFECE" height="5" style="stroke: #A80036; stroke-width: 1.5;" width="10" x="669" y="278.7969"/><text fill="#000000" font-family="sans-serif" font-size="14" lengthAdjust="spacingAndGlyphs" textLength="146" x="684" y="275.4951">Collaborative Filtering</text><!--MD5=[1951215b76af8f1dea3037dae9dde627]
entity CBF--><rect fill="#FEFECE" filter="url(#f1anqof34n2a1p)" height="36.2969" style="stroke: #A80036; stroke-width: 1.5;" width="183" x="455.5" y="252.5"/><rect fill="#FEFECE" height="5" style="stroke: #A80036; stroke-width: 1.5;" width="10" x="450.5" y="257.5"/><rect fill="#FEFECE" height="5" style="stroke: #A80036; stroke-width: 1.5;" width="10" x="450.5" y="278.7969"/><text fill="#000000" font-family="sans-serif" font-size="14" lengthAdjust="spacingAndGlyphs" textLength="163" x="465.5" y="275.4951">Content-Based Filtering</text><!--MD5=[f1cf4895171720f7d7dbebb70272d69c]
entity HR--><rect fill="#FEFECE" filter="url(#f1anqof34n2a1p)" height="36.2969" style="stroke: #A80036; stroke-width: 1.5;" width="170" x="566" y="362.5"/><rect fill="#FEFECE" height="5" style="stroke: #A80036; stroke-width: 1.5;" width="10" x="561" y="367.5"/><rect fill="#FEFECE" height="5" style="stroke: #A80036; stroke-width: 1.5;" width="10" x="561" y="388.7969"/><text fill="#000000" font-family="sans-serif" font-size="14" lengthAdjust="spacingAndGlyphs" textLength="150" x="576" y="385.4951">Hybrid Recommender</text><!--MD5=[ee0fec323975fbe97ba28321ad4c4bf3]
entity U--><ellipse cx="1372" cy="18" fill="#FEFECE" filter="url(#f1anqof34n2a1p)" rx="8" ry="8" style="stroke: #A80036; stroke-width: 1.5;"/><path d="M1372,26 L1372,53 M1359,34 L1385,34 M1372,53 L1359,68 M1372,53 L1385,68 " fill="none" filter="url(#f1anqof34n2a1p)" style="stroke: #A80036; stroke-width: 1.5;"/><text fill="#000000" font-family="sans-serif" font-size="14" lengthAdjust="spacingAndGlyphs" textLength="32" x="1356" y="86.4951">User</text><!--MD5=[f9ba5bf973e7832d2ce5ed59077b93f7]
entity DB--><path d="M6,258 C6,248 49,248 49,248 C49,248 92,248 92,258 L92,283.2969 C92,293.2969 49,293.2969 49,293.2969 C49,293.2969 6,293.2969 6,283.2969 L6,258 " fill="#FEFECE" filter="url(#f1anqof34n2a1p)" style="stroke: #000000; stroke-width: 1.5;"/><path d="M6,258 C6,268 49,268 49,268 C49,268 92,268 92,258 " fill="none" style="stroke: #000000; stroke-width: 1.5;"/><text fill="#000000" font-family="sans-serif" font-size="14" lengthAdjust="spacingAndGlyphs" textLength="66" x="16" y="284.9951">Database</text><path d="M1488,250.5 L1488,290.7656 L1830,290.7656 L1830,260.5 L1820,250.5 L1488,250.5 " fill="#FBFB77" filter="url(#f1anqof34n2a1p)" style="stroke: #A80036; stroke-width: 1.0;"/><path d="M1820,250.5 L1820,260.5 L1830,260.5 L1820,250.5 " fill="#FBFB77" style="stroke: #A80036; stroke-width: 1.0;"/><text fill="#000000" font-family="sans-serif" font-size="13" lengthAdjust="spacingAndGlyphs" textLength="310" x="1494" y="267.5669">Хранилище данных: профили пользователей,</text><text fill="#000000" font-family="sans-serif" font-size="13" lengthAdjust="spacingAndGlyphs" textLength="321" x="1494" y="282.6997">история действий, каталог товаров/контента</text><!--MD5=[52089553108b68370b0355e98754dad0]
link U to UBT--><path d="M1366.67,89.62 C1366.67,124.09 1366.67,168 1366.67,168 C1366.67,168 952.07,168 952.07,168 " fill="none" id="U-&gt;UBT" style="stroke: #A80036; stroke-width: 1.0;"/><polygon fill="#A80036" points="947.07,168,956.07,172,952.07,168,956.07,164,947.07,168" style="stroke: #A80036; stroke-width: 1.0;"/><!--MD5=[232f4144f2eaa6df5bd86dc7210c9255]
link UBT to IAL--><path d="M807.5,185.65 C807.5,203.47 807.5,228 807.5,228 C807.5,228 189,228 189,228 C189,228 189,249.01 189,261.49 " fill="none" id="UBT-IAL" style="stroke: #A80036; stroke-width: 1.0;"/><!--MD5=[3a38f86b95d3b551b9b815ef3ce853f6]
reverse link IAL to DIS--><path d="M208,271 C208,271 232.89,271 232.89,271 " fill="none" id="IAL&lt;-DIS" style="stroke: #A80036; stroke-width: 1.0; stroke-dasharray: 7.0,7.0;"/><path d="M201.0782,279.4572 A9,9 0 0 0 201.0782 262.5428" fill="none" style="stroke: #A80036; stroke-width: 1.5;"/><!--MD5=[c2f897aa2f0517ca954cb79c0c167e3d]
link DIS to DB--><path d="M232.76,259 C232.76,259 97.05,259 97.05,259 " fill="none" id="DIS-&gt;DB" style="stroke: #A80036; stroke-width: 1.0;"/><polygon fill="#A80036" points="92.05,259,101.05,263,97.05,259,101.05,255,92.05,259" style="stroke: #A80036; stroke-width: 1.0;"/><!--MD5=[333d2162c9476b662ff125eb4858de8e]
link UP to IUPR--><path d="M139.17,185.91 C139.17,208.13 139.17,244.6 139.17,261.45 " fill="none" id="UP-IUPR" style="stroke: #A80036; stroke-width: 1.0;"/><!--MD5=[316b2adbcdb8b5b8c53a0722f0d94b45]
reverse link UP to DB--><path d="M133.33,190.84 C133.33,190.84 133.33,256 133.33,256 C133.33,256 112.9,256 92.15,256 " fill="none" id="UP&lt;-DB" style="stroke: #A80036; stroke-width: 1.0;"/><polygon fill="#A80036" points="133.33,185.84,129.33,194.84,133.33,190.84,137.33,194.84,133.33,185.84" style="stroke: #A80036; stroke-width: 1.0;"/><!--MD5=[ff2e78fced1c30f4ae4c54ed70d4a3ae]
link DB to RE--><path d="M49,247.93 C49,229.68 49,207 49,207 C49,207 875,207 875,207 C875,207 875,207.9014 875,209.4894 " fill="none" id="DB-&gt;RE" style="stroke: #A80036; stroke-width: 1.0;"/><polygon fill="#A80036" points="875,209.4894,879,200.4894,875,204.4894,871,200.4894,875,209.4894" style="stroke: #A80036; stroke-width: 1.0;"/><!--MD5=[23f642e068223de2a7654e838ba4dccd]
link CF to HR--><path d="M705,288.66 C705,288.66 705,357.31 705,357.31 " fill="none" id="CF-&gt;HR" style="stroke: #A80036; stroke-width: 1.0;"/><polygon fill="#A80036" points="705,362.31,709,353.31,705,357.31,701,353.31,705,362.31" style="stroke: #A80036; stroke-width: 1.0;"/><!--MD5=[7a68619db189293c906ae3cd56bb3870]
link CBF to HR--><path d="M602.25,288.66 C602.25,288.66 602.25,357.31 602.25,357.31 " fill="none" id="CBF-&gt;HR" style="stroke: #A80036; stroke-width: 1.0;"/><polygon fill="#A80036" points="602.25,362.31,606.25,353.31,602.25,357.31,598.25,353.31,602.25,362.31" style="stroke: #A80036; stroke-width: 1.0;"/><!--MD5=[6ae85bf3a79b3406ae95e7cb361c0380]
link RE to IRE--><path d="M883.0253,271 C883.1452,271 883.266,271 883.3876,271 C883.8741,271 884.3743,271 884.8861,271 C885.9097,271 886.9794,271 888.0786,271 C890.277,271 892.5928,271 894.8913,271 C904.085,271 913,271 913,271 C913,271 913,344.68 913,371.16 " fill="none" id="RE-IRE" style="stroke: #A80036; stroke-width: 1.0;"/><!--MD5=[07d9328a22728cd495d53adf77869d32]
reverse link IUPR to RE--><path d="M136,289.58 C136,289.58 136,308 136,308 C136,308 182.1875,308 251.4688,308 C286.1094,308 326.5234,308 369.8242,308 C380.6494,308 391.655,308 402.796,308 C408.3664,308 413.9707,308 419.6032,308 C422.4194,308 425.2427,308 428.0724,308 " fill="none" id="IUPR&lt;-RE" style="stroke: #A80036; stroke-width: 1.0; stroke-dasharray: 7.0,7.0;"/><path d="M127.5428,282.6582 A9,9 0 0 0 144.4572 282.6582" fill="none" style="stroke: #A80036; stroke-width: 1.5;"/><!--MD5=[bca45f30d7d016a938ecfac34b8c83cb]
link RS to IRE--><path d="M1307.25,362.23 C1307.25,350.71 1307.25,338 1307.25,338 C1307.25,338 919,338 919,338 C919,338 919,361.49 919,361.49 " fill="none" id="RS-&gt;IRE" style="stroke: #A80036; stroke-width: 1.0; stroke-dasharray: 7.0,7.0;"/><path d="M927.4572,368.4118 A9,9 0 0 0 910.5428 368.4118" fill="none" style="stroke: #A80036; stroke-width: 1.5;"/><!--MD5=[ac2af4a254124d7a8eec4a793b1d9798]
reverse link U to RS--><path d="M1377.33,94.65 C1377.33,94.65 1377.33,362.37 1377.33,362.37 " fill="none" id="U&lt;-RS" style="stroke: #A80036; stroke-width: 1.0;"/><polygon fill="#A80036" points="1377.33,89.65,1373.33,98.65,1377.33,94.65,1381.33,98.65,1377.33,89.65" style="stroke: #A80036; stroke-width: 1.0;"/><!--MD5=[040dcad0849c27e3845fac2045513849]
link GMN40 to DB--><path d="M1659,290.65 C1659,305.45 1659,323 1659,323 C1659,323 49,323 49,323 C49,323 49,307.3 49,293.07 " fill="none" id="GMN40-DB" style="stroke: #A80036; stroke-width: 1.0; stroke-dasharray: 7.0,7.0;"/><!--MD5=[148680c5357d4c63709b505f6b9c6618]
@startuml
skinparam linetype ortho

actor "User" as U
database "Database" as DB

rectangle "Recommendation System" {
    
    component "User Behavior Tracker" as UBT
    component "Data Ingestion Service" as DIS
    component "User Profiler" as UP
    component "Recommendation Service" as RS
    
    component "Recommendation Engine" as RE {
        component "Collaborative Filtering" as CF
        component "Content-Based Filtering" as CBF
        component "Hybrid Recommender" as HR
    }
    
    interface "IActivityLogger" as IAL
    interface "IRecEng" as IRE
    interface "IUserProfileReader" as IUPR

    U - -> UBT
    UBT -down- IAL
    DIS -left-..( IAL
    DIS - -> DB
    UP -down- IUPR
    UP <- - DB
    DB - -> RE
    CF - -> HR
    CBF - -> HR
    RE -down- IRE
    RE -left-..( IUPR
    RS -right-..( IRE
    U <- - RS

    note bottom of HR
      Комбинирует подходы Collaborative
      и Content-Based filtering для
      улучшения качества рекомендаций
    end note 

    note left of RS
      Основной сервис, который
      взаимодействует с пользователем
      и возвращает рекомендации
    end note

    note bottom of DIS
      Сервис приема данных. Получает
      сырые данные от трекера и
      сохраняет в базу данных
    end note

}

note left of DB
      Хранилище данных: профили пользователей,
      история действий, каталог товаров/контента
    end note
@enduml

PlantUML version 1.2020.02(Sun Mar 01 10:22:07 UTC 2020)
(GPL source distribution)
Java Runtime: OpenJDK Runtime Environment
JVM: OpenJDK 64-Bit Server VM
Java Version: 17.0.16+8
Operating System: Linux
Default Encoding: UTF-8
Language: en
Country: null
--></g></svg>