<?xml version="1.0" encoding="UTF-8" standalone="no"?><svg xmlns="http://www.w3.org/2000/svg" xmlns:xlink="http://www.w3.org/1999/xlink" contentScriptType="application/ecmascript" contentStyleType="text/css" height="858px" preserveAspectRatio="none" style="width:748px;height:858px;" version="1.1" viewBox="0 0 748 858" width="748px" zoomAndPan="magnify"><defs><filter height="300%" id="f1dbh5u9dgqzf4" width="300%" x="-1" y="-1"><feGaussianBlur result="blurOut" stdDeviation="2.0"/><feColorMatrix in="blurOut" result="blurOut2" type="matrix" values="0 0 0 0 0 0 0 0 0 0 0 0 0 0 0 0 0 0 .4 0"/><feOffset dx="4.0" dy="4.0" in="blurOut2" result="blurOut3"/><feBlend in="SourceGraphic" in2="blurOut3" mode="normal"/></filter></defs><g><text fill="#000000" font-family="sans-serif" font-size="18" lengthAdjust="spacingAndGlyphs" textLength="548" x="111.5" y="16.708">Система генерации персональных финансовых отчетов</text><!--MD5=[2e2562cad79f86c8cf26509ffb1e95aa]
cluster Мобильный банк--><rect fill="#FFFFFF" filter="url(#f1dbh5u9dgqzf4)" height="675" style="stroke: #000000; stroke-width: 1.5;" width="525" x="22" y="172.9531"/><text fill="#000000" font-family="sans-serif" font-size="14" font-weight="bold" lengthAdjust="spacingAndGlyphs" textLength="139" x="215" y="187.9482">Мобильный банк</text><!--MD5=[c92432ea3d28a013dcef14eab14af41f]
cluster Внешние системы--><rect fill="#FFFFFF" filter="url(#f1dbh5u9dgqzf4)" height="87" style="stroke: #000000; stroke-width: 1.5;" width="166" x="571" y="306.9531"/><text fill="#000000" font-family="sans-serif" font-size="14" font-weight="bold" lengthAdjust="spacingAndGlyphs" textLength="150" x="579" y="321.9482">Внешние системы</text><!--MD5=[d02bd8370c72f57aab2ef3ee4efc568f]
entity Import--><rect fill="#FEFECE" filter="url(#f1dbh5u9dgqzf4)" height="36.2969" style="stroke: #A80036; stroke-width: 1.5;" width="167" x="364.5" y="207.9531"/><rect fill="#FEFECE" height="5" style="stroke: #A80036; stroke-width: 1.5;" width="10" x="359.5" y="212.9531"/><rect fill="#FEFECE" height="5" style="stroke: #A80036; stroke-width: 1.5;" width="10" x="359.5" y="234.25"/><text fill="#000000" font-family="sans-serif" font-size="14" lengthAdjust="spacingAndGlyphs" textLength="147" x="374.5" y="230.9482">Импорт транзакций</text><!--MD5=[ed5305743812ea3f455fa3aa77c9fe8e]
entity Processing--><rect fill="#FEFECE" filter="url(#f1dbh5u9dgqzf4)" height="36.2969" style="stroke: #A80036; stroke-width: 1.5;" width="191" x="102.5" y="341.9531"/><rect fill="#FEFECE" height="5" style="stroke: #A80036; stroke-width: 1.5;" width="10" x="97.5" y="346.9531"/><rect fill="#FEFECE" height="5" style="stroke: #A80036; stroke-width: 1.5;" width="10" x="97.5" y="368.25"/><text fill="#000000" font-family="sans-serif" font-size="14" lengthAdjust="spacingAndGlyphs" textLength="171" x="112.5" y="364.9482">Обработка транзакций</text><!--MD5=[b38bac1ecbb8f72aeeb41ff9f015f94a]
entity Categorization--><rect fill="#FEFECE" filter="url(#f1dbh5u9dgqzf4)" height="36.2969" style="stroke: #A80036; stroke-width: 1.5;" width="205" x="95.5" y="456.9531"/><rect fill="#FEFECE" height="5" style="stroke: #A80036; stroke-width: 1.5;" width="10" x="90.5" y="461.9531"/><rect fill="#FEFECE" height="5" style="stroke: #A80036; stroke-width: 1.5;" width="10" x="90.5" y="483.25"/><text fill="#000000" font-family="sans-serif" font-size="14" lengthAdjust="spacingAndGlyphs" textLength="185" x="105.5" y="479.9482">Категоризация расходов</text><!--MD5=[78444b0373532d6497ce4bf9dd597f37]
entity Analytics--><rect fill="#FEFECE" filter="url(#f1dbh5u9dgqzf4)" height="36.2969" style="stroke: #A80036; stroke-width: 1.5;" width="237" x="79.5" y="569.9531"/><rect fill="#FEFECE" height="5" style="stroke: #A80036; stroke-width: 1.5;" width="10" x="74.5" y="574.9531"/><rect fill="#FEFECE" height="5" style="stroke: #A80036; stroke-width: 1.5;" width="10" x="74.5" y="596.25"/><text fill="#000000" font-family="sans-serif" font-size="14" lengthAdjust="spacingAndGlyphs" textLength="217" x="89.5" y="592.9482">Аналитика доходов/расходов</text><!--MD5=[c1fab53e4fc6ef65647dc9f542d3c875]
entity Visualization--><rect fill="#FEFECE" filter="url(#f1dbh5u9dgqzf4)" height="36.2969" style="stroke: #A80036; stroke-width: 1.5;" width="205" x="160.5" y="795.9531"/><rect fill="#FEFECE" height="5" style="stroke: #A80036; stroke-width: 1.5;" width="10" x="155.5" y="800.9531"/><rect fill="#FEFECE" height="5" style="stroke: #A80036; stroke-width: 1.5;" width="10" x="155.5" y="822.25"/><text fill="#000000" font-family="sans-serif" font-size="14" lengthAdjust="spacingAndGlyphs" textLength="185" x="170.5" y="818.9482">Генерация визуализаций</text><!--MD5=[dd0b17d36d474f1c0301b2b30cc309b7]
entity Forecasting--><rect fill="#FEFECE" filter="url(#f1dbh5u9dgqzf4)" height="36.2969" style="stroke: #A80036; stroke-width: 1.5;" width="225" x="305.5" y="682.9531"/><rect fill="#FEFECE" height="5" style="stroke: #A80036; stroke-width: 1.5;" width="10" x="300.5" y="687.9531"/><rect fill="#FEFECE" height="5" style="stroke: #A80036; stroke-width: 1.5;" width="10" x="300.5" y="709.25"/><text fill="#000000" font-family="sans-serif" font-size="14" lengthAdjust="spacingAndGlyphs" textLength="205" x="315.5" y="705.9482">Прогнозирование бюджета</text><!--MD5=[080c431ad92f74352321921b83d351b7]
entity BankAPI--><rect fill="#FEFECE" filter="url(#f1dbh5u9dgqzf4)" height="36.2969" style="stroke: #A80036; stroke-width: 1.5;" width="88" x="587" y="341.9531"/><rect fill="#FEFECE" height="5" style="stroke: #A80036; stroke-width: 1.5;" width="10" x="582" y="346.9531"/><rect fill="#FEFECE" height="5" style="stroke: #A80036; stroke-width: 1.5;" width="10" x="582" y="368.25"/><text fill="#000000" font-family="sans-serif" font-size="14" lengthAdjust="spacingAndGlyphs" textLength="68" x="597" y="364.9482">API Банка</text><!--MD5=[fee662a292a0353a69bd162820bae93b]
entity User--><ellipse cx="448" cy="38.4531" fill="#FEFECE" filter="url(#f1dbh5u9dgqzf4)" rx="8" ry="8" style="stroke: #A80036; stroke-width: 1.5;"/><path d="M448,46.4531 L448,73.4531 M435,54.4531 L461,54.4531 M448,73.4531 L435,88.4531 M448,73.4531 L461,88.4531 " fill="none" filter="url(#f1dbh5u9dgqzf4)" style="stroke: #A80036; stroke-width: 1.5;"/><text fill="#000000" font-family="sans-serif" font-size="14" lengthAdjust="spacingAndGlyphs" textLength="104" x="396" y="106.9482">Пользователь</text><!--MD5=[7dc6e14b82ce74474a9393af27e91e25]
link User to Import--><path d="M448,110.2431 C448,139.5031 448,178.2231 448,202.3531 " fill="none" id="User-&gt;Import" style="stroke: #A80036; stroke-width: 1.0;"/><polygon fill="#A80036" points="448,207.5631,452,198.5631,448,202.5631,444,198.5631,448,207.5631" style="stroke: #A80036; stroke-width: 1.0;"/><text fill="#000000" font-family="sans-serif" font-size="13" lengthAdjust="spacingAndGlyphs" textLength="229" x="449" y="153.02">предоставляет доступ к данным</text><!--MD5=[eb228324223867c9727f77ae034ed43d]
link Import to Processing--><path d="M364.4,234.9231 C308.19,241.9631 240.72,254.2431 220,273.9531 C203.14,289.9931 198.57,317.1231 197.62,336.4231 " fill="none" id="Import-&gt;Processing" style="stroke: #A80036; stroke-width: 1.0;"/><polygon fill="#A80036" points="197.44,341.6331,201.746,332.7755,197.6113,336.6361,193.7507,332.5013,197.44,341.6331" style="stroke: #A80036; stroke-width: 1.0;"/><text fill="#000000" font-family="sans-serif" font-size="13" lengthAdjust="spacingAndGlyphs" textLength="208" x="221" y="287.02">передает данные транзакций</text><!--MD5=[46eade2903a34cf49d8ea2cf0fc8b22d]
link Processing to Categorization--><path d="M198,378.1131 C198,397.6931 198,429.7831 198,451.3831 " fill="none" id="Processing-&gt;Categorization" style="stroke: #A80036; stroke-width: 1.0;"/><polygon fill="#A80036" points="198,456.6331,202,447.6331,198,451.6331,194,447.6331,198,456.6331" style="stroke: #A80036; stroke-width: 1.0;"/><text fill="#000000" font-family="sans-serif" font-size="13" lengthAdjust="spacingAndGlyphs" textLength="134" x="199" y="423.02">очищенные данные</text><!--MD5=[b0a350d5689066ab637204854c9ca253]
link Categorization to Analytics--><path d="M198,493.2931 C198,512.5231 198,543.5831 198,564.6131 " fill="none" id="Categorization-&gt;Analytics" style="stroke: #A80036; stroke-width: 1.0;"/><polygon fill="#A80036" points="198,569.7331,202,560.7331,198,564.7331,194,560.7331,198,569.7331" style="stroke: #A80036; stroke-width: 1.0;"/><text fill="#000000" font-family="sans-serif" font-size="13" lengthAdjust="spacingAndGlyphs" textLength="204" x="199" y="536.02">классифицированные данные</text><!--MD5=[f310e781d716fc287c5d2f01b68b99d4]
link Analytics to Visualization--><path d="M165.49,606.1431 C125.17,629.8531 64.76,674.7031 91,718.9531 C113.18,756.3531 156.06,779.8331 193.46,793.9731 " fill="none" id="Analytics-&gt;Visualization" style="stroke: #A80036; stroke-width: 1.0;"/><polygon fill="#A80036" points="198.46,795.8231,191.4122,788.9435,193.7719,794.0847,188.6308,796.4444,198.46,795.8231" style="stroke: #A80036; stroke-width: 1.0;"/><text fill="#000000" font-family="sans-serif" font-size="13" lengthAdjust="spacingAndGlyphs" textLength="195" x="92" y="705.52">агрегированная статистика</text><!--MD5=[2948513e76fe3aa8f8c6e1b134323e72]
link Analytics to Forecasting--><path d="M231.89,606.0531 C271.7,626.1431 337.59,659.3831 379.35,680.4531 " fill="none" id="Analytics-&gt;Forecasting" style="stroke: #A80036; stroke-width: 1.0;"/><polygon fill="#A80036" points="384.07,682.8331,377.8285,675.2145,379.6036,680.5856,374.2325,682.3607,384.07,682.8331" style="stroke: #A80036; stroke-width: 1.0;"/><text fill="#000000" font-family="sans-serif" font-size="13" lengthAdjust="spacingAndGlyphs" textLength="145" x="323" y="649.02">данные для моделей</text><!--MD5=[cbe4333184235bc75eef1fb05a16c6b2]
link Forecasting to Visualization--><path d="M394.12,719.0531 C366.36,738.9331 320.59,771.7131 291.13,792.8031 " fill="none" id="Forecasting-&gt;Visualization" style="stroke: #A80036; stroke-width: 1.0;"/><polygon fill="#A80036" points="286.91,795.8331,296.5533,793.8313,290.9709,792.9161,291.8861,787.3338,286.91,795.8331" style="stroke: #A80036; stroke-width: 1.0;"/><text fill="#000000" font-family="sans-serif" font-size="13" lengthAdjust="spacingAndGlyphs" textLength="142" x="351" y="762.02">прогнозные графики</text><!--MD5=[911d1512e51b5f097ff155351c3370d6]
link Import to BankAPI--><path d="M441.15,244.1931 C436.69,258.5731 433.6,278.6231 445,290.9531 C460.44,307.6431 525.64,291.1731 547,298.9531 C570.6,307.5431 593.53,324.7131 609.45,338.4831 " fill="none" id="Import-&gt;BankAPI" style="stroke: #A80036; stroke-width: 1.0;"/><polygon fill="#A80036" points="613.35,341.9031,609.2276,332.9585,609.5933,338.6035,603.9483,338.9692,613.35,341.9031" style="stroke: #A80036; stroke-width: 1.0;"/><text fill="#000000" font-family="sans-serif" font-size="13" lengthAdjust="spacingAndGlyphs" textLength="141" x="446" y="287.02">запросы транзакций</text><!--MD5=[2c92a4640e0dee0b73e6e55d59318c41]
link BankAPI to Import--><path d="M627.48,341.8131 C622.67,322.6731 612.24,291.9931 592,273.9531 C576.37,260.0231 556.53,250.2131 536.62,243.3031 " fill="none" id="BankAPI-&gt;Import" style="stroke: #A80036; stroke-width: 1.0;"/><polygon fill="#A80036" points="531.83,241.6931,539.0972,248.3405,536.572,243.2785,541.6339,240.7533,531.83,241.6931" style="stroke: #A80036; stroke-width: 1.0;"/><text fill="#000000" font-family="sans-serif" font-size="13" lengthAdjust="spacingAndGlyphs" textLength="107" x="606" y="287.02">ответ от банка</text><!--MD5=[10de43d8914a6dc8559652594955bf17]
@startuml
title Система генерации персональных финансовых отчетов

actor "Пользователь" as User
rectangle "Мобильный банк" {
  
  [Импорт транзакций] as Import
  [Обработка транзакций] as Processing
  [Категоризация расходов] as Categorization
  [Аналитика доходов/расходов] as Analytics
  [Генерация визуализаций] as Visualization
  [Прогнозирование бюджета] as Forecasting
}

rectangle "Внешние системы" {
  [API Банка] as BankAPI
}

User - -> Import : предоставляет доступ к данным
Import - -> Processing : передает данные транзакций
Processing - -> Categorization : очищенные данные
Categorization - -> Analytics : классифицированные данные
Analytics - -> Visualization : агрегированная статистика
Analytics - -> Forecasting : данные для моделей
Forecasting - -> Visualization : прогнозные графики

Import - -> BankAPI : запросы транзакций
BankAPI - -> Import : ответ от банка
@enduml

PlantUML version 1.2020.02(Sun Mar 01 10:22:07 UTC 2020)
(GPL source distribution)
Java Runtime: OpenJDK Runtime Environment
JVM: OpenJDK 64-Bit Server VM
Java Version: 17.0.16+8
Operating System: Linux
Default Encoding: UTF-8
Language: en
Country: null
--></g></svg>