<?xml version="1.0" encoding="UTF-8" standalone="no"?><svg xmlns="http://www.w3.org/2000/svg" xmlns:xlink="http://www.w3.org/1999/xlink" contentScriptType="application/ecmascript" contentStyleType="text/css" height="415px" preserveAspectRatio="none" style="width:742px;height:415px;" version="1.1" viewBox="0 0 742 415" width="742px" zoomAndPan="magnify"><defs><filter height="300%" id="f1vyzlpym3fb3n" width="300%" x="-1" y="-1"><feGaussianBlur result="blurOut" stdDeviation="2.0"/><feColorMatrix in="blurOut" result="blurOut2" type="matrix" values="0 0 0 0 0 0 0 0 0 0 0 0 0 0 0 0 0 0 .4 0"/><feOffset dx="4.0" dy="4.0" in="blurOut2" result="blurOut3"/><feBlend in="SourceGraphic" in2="blurOut3" mode="normal"/></filter></defs><g><text fill="#000000" font-family="sans-serif" font-size="18" lengthAdjust="spacingAndGlyphs" textLength="552" x="99" y="16.708">Система регистрации инцидентов на газовом промысле</text><!--MD5=[91973c96897d1b47acf069d2375b565a]
entity FE--><rect fill="#FEFECE" filter="url(#f1vyzlpym3fb3n)" height="36.2969" style="stroke: #A80036; stroke-width: 1.5;" width="224" x="112.5" y="28.9531"/><rect fill="#FEFECE" height="5" style="stroke: #A80036; stroke-width: 1.5;" width="10" x="107.5" y="33.9531"/><rect fill="#FEFECE" height="5" style="stroke: #A80036; stroke-width: 1.5;" width="10" x="107.5" y="55.25"/><text fill="#000000" font-family="sans-serif" font-size="14" lengthAdjust="spacingAndGlyphs" textLength="204" x="122.5" y="51.9482">Веб-приложение (Frontend)</text><!--MD5=[645d8587175d8f7ad110cd370775931d]
entity API--><rect fill="#FEFECE" filter="url(#f1vyzlpym3fb3n)" height="36.2969" style="stroke: #A80036; stroke-width: 1.5;" width="106" x="171.5" y="141.9531"/><rect fill="#FEFECE" height="5" style="stroke: #A80036; stroke-width: 1.5;" width="10" x="166.5" y="146.9531"/><rect fill="#FEFECE" height="5" style="stroke: #A80036; stroke-width: 1.5;" width="10" x="166.5" y="168.25"/><text fill="#000000" font-family="sans-serif" font-size="14" lengthAdjust="spacingAndGlyphs" textLength="86" x="181.5" y="164.9482">Backend API</text><!--MD5=[f9ba5bf973e7832d2ce5ed59077b93f7]
entity DB--><rect fill="#FEFECE" filter="url(#f1vyzlpym3fb3n)" height="36.2969" style="stroke: #A80036; stroke-width: 1.5;" width="101" x="6" y="254.9531"/><rect fill="#FEFECE" height="5" style="stroke: #A80036; stroke-width: 1.5;" width="10" x="1" y="259.9531"/><rect fill="#FEFECE" height="5" style="stroke: #A80036; stroke-width: 1.5;" width="10" x="1" y="281.25"/><text fill="#000000" font-family="sans-serif" font-size="14" lengthAdjust="spacingAndGlyphs" textLength="81" x="16" y="277.9482">PostgreSQL</text><!--MD5=[02b0da7e54b74cbea8f6462e138178e8]
entity FS--><rect fill="#FEFECE" filter="url(#f1vyzlpym3fb3n)" height="36.2969" style="stroke: #A80036; stroke-width: 1.5;" width="165" x="142" y="254.9531"/><rect fill="#FEFECE" height="5" style="stroke: #A80036; stroke-width: 1.5;" width="10" x="137" y="259.9531"/><rect fill="#FEFECE" height="5" style="stroke: #A80036; stroke-width: 1.5;" width="10" x="137" y="281.25"/><text fill="#000000" font-family="sans-serif" font-size="14" lengthAdjust="spacingAndGlyphs" textLength="145" x="152" y="277.9482">Хранилище файлов</text><!--MD5=[59ceac3e1bb6f0ece56988f2042cffc2]
entity Kafka--><rect fill="#FEFECE" filter="url(#f1vyzlpym3fb3n)" height="36.2969" style="stroke: #A80036; stroke-width: 1.5;" width="57" x="370" y="254.9531"/><rect fill="#FEFECE" height="5" style="stroke: #A80036; stroke-width: 1.5;" width="10" x="365" y="259.9531"/><rect fill="#FEFECE" height="5" style="stroke: #A80036; stroke-width: 1.5;" width="10" x="365" y="281.25"/><text fill="#000000" font-family="sans-serif" font-size="14" lengthAdjust="spacingAndGlyphs" textLength="37" x="380" y="277.9482">Kafka</text><!--MD5=[f1cf4895171720f7d7dbebb70272d69c]
entity HR--><rect fill="#FEFECE" filter="url(#f1vyzlpym3fb3n)" height="36.2969" style="stroke: #A80036; stroke-width: 1.5;" width="106" x="139.5" y="367.9531"/><rect fill="#FEFECE" height="5" style="stroke: #A80036; stroke-width: 1.5;" width="10" x="134.5" y="372.9531"/><rect fill="#FEFECE" height="5" style="stroke: #A80036; stroke-width: 1.5;" width="10" x="134.5" y="394.25"/><text fill="#000000" font-family="sans-serif" font-size="14" lengthAdjust="spacingAndGlyphs" textLength="86" x="149.5" y="390.9482">HR-система</text><!--MD5=[3205df017ddef4854d29ba3b31c0b4bf]
entity EQ--><rect fill="#FEFECE" filter="url(#f1vyzlpym3fb3n)" height="36.2969" style="stroke: #A80036; stroke-width: 1.5;" width="236" x="280.5" y="367.9531"/><rect fill="#FEFECE" height="5" style="stroke: #A80036; stroke-width: 1.5;" width="10" x="275.5" y="372.9531"/><rect fill="#FEFECE" height="5" style="stroke: #A80036; stroke-width: 1.5;" width="10" x="275.5" y="394.25"/><text fill="#000000" font-family="sans-serif" font-size="14" lengthAdjust="spacingAndGlyphs" textLength="216" x="290.5" y="390.9482">Система учёта оборудования</text><!--MD5=[b13f17d50cdac167bb46d40c10883800]
entity BI--><rect fill="#FEFECE" filter="url(#f1vyzlpym3fb3n)" height="36.2969" style="stroke: #A80036; stroke-width: 1.5;" width="99" x="552" y="367.9531"/><rect fill="#FEFECE" height="5" style="stroke: #A80036; stroke-width: 1.5;" width="10" x="547" y="372.9531"/><rect fill="#FEFECE" height="5" style="stroke: #A80036; stroke-width: 1.5;" width="10" x="547" y="394.25"/><text fill="#000000" font-family="sans-serif" font-size="14" lengthAdjust="spacingAndGlyphs" textLength="79" x="562" y="390.9482">BI-система</text><!--MD5=[c3e96c83e550cc693570b49f8ef8cb4f]
link FE to API--><path d="M224.5,65.2931 C224.5,84.5231 224.5,115.5831 224.5,136.6131 " fill="none" id="FE-&gt;API" style="stroke: #A80036; stroke-width: 1.0;"/><polygon fill="#A80036" points="224.5,141.7331,228.5,132.7331,224.5,136.7331,220.5,132.7331,224.5,141.7331" style="stroke: #A80036; stroke-width: 1.0;"/><text fill="#000000" font-family="sans-serif" font-size="13" lengthAdjust="spacingAndGlyphs" textLength="56" x="225.5" y="108.02">REST API</text><!--MD5=[b874c2a0ce20abc088b74c0c7c933d7a]
link API to DB--><path d="M198.62,178.0531 C168.4,198.0131 118.51,230.9831 86.6,252.0631 " fill="none" id="API-&gt;DB" style="stroke: #A80036; stroke-width: 1.0;"/><polygon fill="#A80036" points="82.41,254.8331,92.1238,253.2075,86.5812,252.0761,87.7126,246.5336,82.41,254.8331" style="stroke: #A80036; stroke-width: 1.0;"/><text fill="#000000" font-family="sans-serif" font-size="13" lengthAdjust="spacingAndGlyphs" textLength="26" x="152.5" y="221.02">SQL</text><!--MD5=[ea708e83b42406cdbed3ef88454c6738]
link API to FS--><path d="M223.12,178.3531 C222.49,187.2031 221.81,198.1431 221.5,207.9531 C221.06,221.8631 221.76,237.4631 222.6,249.7831 " fill="none" id="API-&gt;FS" style="stroke: #A80036; stroke-width: 1.0;"/><polygon fill="#A80036" points="222.97,254.8431,226.3167,245.5803,222.6127,249.8559,218.3372,246.1519,222.97,254.8431" style="stroke: #A80036; stroke-width: 1.0;"/><text fill="#000000" font-family="sans-serif" font-size="13" lengthAdjust="spacingAndGlyphs" textLength="132" x="222.5" y="221.02">File upload/download</text><!--MD5=[3d5241ac38fd5e95221c2c34bfb97435]
link API to Kafka--><path d="M277.71,170.5531 C304.44,177.4631 336.04,189.0131 359.5,207.9531 C373.11,218.9431 383.19,236.0531 389.68,249.8131 " fill="none" id="API-&gt;Kafka" style="stroke: #A80036; stroke-width: 1.0;"/><polygon fill="#A80036" points="391.91,254.7131,391.8272,244.8646,389.841,250.1613,384.5443,248.175,391.91,254.7131" style="stroke: #A80036; stroke-width: 1.0;"/><text fill="#000000" font-family="sans-serif" font-size="13" lengthAdjust="spacingAndGlyphs" textLength="143" x="376.5" y="221.02">Публикация событий</text><!--MD5=[d3dd1987cd034432821cb71a6fa8f4fb]
link Kafka to HR--><path d="M369.67,281.1231 C325.86,292.1831 246.45,312.9731 235.5,320.9531 C220.73,331.7231 209.48,349.2131 202.2,363.1931 " fill="none" id="Kafka-&gt;HR" style="stroke: #A80036; stroke-width: 1.0;"/><polygon fill="#A80036" points="199.88,367.7831,207.4906,361.5318,202.1218,363.3138,200.3398,357.945,199.88,367.7831" style="stroke: #A80036; stroke-width: 1.0;"/><text fill="#000000" font-family="sans-serif" font-size="13" lengthAdjust="spacingAndGlyphs" textLength="153" x="236.5" y="334.02">События / интеграция</text><!--MD5=[163865e3e41d6017be3b94e3deb7d910]
link Kafka to EQ--><path d="M398.5,291.2931 C398.5,310.5231 398.5,341.5831 398.5,362.6131 " fill="none" id="Kafka-&gt;EQ" style="stroke: #A80036; stroke-width: 1.0;"/><polygon fill="#A80036" points="398.5,367.7331,402.5,358.7331,398.5,362.7331,394.5,358.7331,398.5,367.7331" style="stroke: #A80036; stroke-width: 1.0;"/><text fill="#000000" font-family="sans-serif" font-size="13" lengthAdjust="spacingAndGlyphs" textLength="153" x="399.5" y="334.02">События / интеграция</text><!--MD5=[cee651ef3d9a107cab91713e76b5c46d]
link Kafka to BI--><path d="M427.18,276.0231 C462.08,279.8331 521.3,290.6131 561.5,320.9531 C575.78,331.7331 586.21,349.2231 592.83,363.1931 " fill="none" id="Kafka-&gt;BI" style="stroke: #A80036; stroke-width: 1.0;"/><polygon fill="#A80036" points="594.93,367.7831,594.81,357.935,592.8438,363.2392,587.5396,361.273,594.93,367.7831" style="stroke: #A80036; stroke-width: 1.0;"/><text fill="#000000" font-family="sans-serif" font-size="13" lengthAdjust="spacingAndGlyphs" textLength="153" x="577.5" y="334.02">События / интеграция</text><!--MD5=[7990c7c92270bdcbd1f545e4e7aaf71f]
@startuml
title Система регистрации инцидентов на газовом промысле

component "Веб-приложение (Frontend)" as FE
component "Backend API" as API
component "PostgreSQL" as DB
component "Хранилище файлов" as FS
component "Kafka" as Kafka
component "HR-система" as HR
component "Система учёта оборудования" as EQ
component "BI-система" as BI

FE - -> API : REST API
API - -> DB : SQL
API - -> FS : File upload/download
API - -> Kafka : Публикация событий
Kafka - -> HR : События / интеграция
Kafka - -> EQ : События / интеграция
Kafka - -> BI : События / интеграция

@enduml

PlantUML version 1.2020.02(Sun Mar 01 10:22:07 UTC 2020)
(GPL source distribution)
Java Runtime: OpenJDK Runtime Environment
JVM: OpenJDK 64-Bit Server VM
Java Version: 17.0.16+8
Operating System: Linux
Default Encoding: UTF-8
Language: en
Country: null
--></g></svg>