<?xml version="1.0" encoding="UTF-8" standalone="no"?><svg xmlns="http://www.w3.org/2000/svg" xmlns:xlink="http://www.w3.org/1999/xlink" contentScriptType="application/ecmascript" contentStyleType="text/css" height="201px" preserveAspectRatio="none" style="width:116px;height:201px;" version="1.1" viewBox="0 0 116 201" width="116px" zoomAndPan="magnify"><defs><filter height="300%" id="fdv44nwb6orfx" width="300%" x="-1" y="-1"><feGaussianBlur result="blurOut" stdDeviation="2.0"/><feColorMatrix in="blurOut" result="blurOut2" type="matrix" values="0 0 0 0 0 0 0 0 0 0 0 0 0 0 0 0 0 0 .4 0"/><feOffset dx="4.0" dy="4.0" in="blurOut2" result="blurOut3"/><feBlend in="SourceGraphic" in2="blurOut3" mode="normal"/></filter></defs><g><!--MD5=[3f0ef310aaa84a542276992c5216544d]
class Car--><rect fill="#FEFECE" filter="url(#fdv44nwb6orfx)" height="73.6094" id="Car" style="stroke: #A80036; stroke-width: 1.5;" width="99" x="6" y="8"/><ellipse cx="41.7" cy="24" fill="#ADD1B2" rx="11" ry="11" style="stroke: #A80036; stroke-width: 1.0;"/><path d="M44.6688,29.6406 Q44.0906,29.9375 43.45,30.0781 Q42.8094,30.2344 42.1063,30.2344 Q39.6063,30.2344 38.2781,28.5938 Q36.9656,26.9375 36.9656,23.8125 Q36.9656,20.6875 38.2781,19.0313 Q39.6063,17.375 42.1063,17.375 Q42.8094,17.375 43.45,17.5313 Q44.1063,17.6875 44.6688,17.9844 L44.6688,20.7031 Q44.0438,20.125 43.45,19.8594 Q42.8563,19.5781 42.2313,19.5781 Q40.8875,19.5781 40.2,20.6563 Q39.5125,21.7188 39.5125,23.8125 Q39.5125,25.9063 40.2,26.9844 Q40.8875,28.0469 42.2313,28.0469 Q42.8563,28.0469 43.45,27.7813 Q44.0438,27.5 44.6688,26.9219 L44.6688,29.6406 Z "/><text fill="#000000" font-family="sans-serif" font-size="12" lengthAdjust="spacingAndGlyphs" textLength="21" x="60.3" y="28.1543">Car</text><line style="stroke: #A80036; stroke-width: 1.5;" x1="7" x2="104" y1="40" y2="40"/><ellipse cx="17" cy="51" fill="none" rx="3" ry="3" style="stroke: #038048; stroke-width: 1.0;"/><text fill="#000000" font-family="sans-serif" font-size="11" lengthAdjust="spacingAndGlyphs" textLength="73" x="26" y="54.2104">String model</text><line style="stroke: #A80036; stroke-width: 1.5;" x1="7" x2="104" y1="60.8047" y2="60.8047"/><ellipse cx="17" cy="71.8047" fill="#84BE84" rx="3" ry="3" style="stroke: #038048; stroke-width: 1.0;"/><text fill="#000000" font-family="sans-serif" font-size="11" lengthAdjust="spacingAndGlyphs" textLength="36" x="26" y="75.0151">drive()</text><!--MD5=[c86ce95fe6226f2d2796c0513d8e83fe]
class Engine--><rect fill="#FEFECE" filter="url(#fdv44nwb6orfx)" height="48" id="Engine" style="stroke: #A80036; stroke-width: 1.5;" width="75" x="18" y="142"/><ellipse cx="33" cy="158" fill="#ADD1B2" rx="11" ry="11" style="stroke: #A80036; stroke-width: 1.0;"/><path d="M35.9688,163.6406 Q35.3906,163.9375 34.75,164.0781 Q34.1094,164.2344 33.4063,164.2344 Q30.9063,164.2344 29.5781,162.5938 Q28.2656,160.9375 28.2656,157.8125 Q28.2656,154.6875 29.5781,153.0313 Q30.9063,151.375 33.4063,151.375 Q34.1094,151.375 34.75,151.5313 Q35.4063,151.6875 35.9688,151.9844 L35.9688,154.7031 Q35.3438,154.125 34.75,153.8594 Q34.1563,153.5781 33.5313,153.5781 Q32.1875,153.5781 31.5,154.6563 Q30.8125,155.7188 30.8125,157.8125 Q30.8125,159.9063 31.5,160.9844 Q32.1875,162.0469 33.5313,162.0469 Q34.1563,162.0469 34.75,161.7813 Q35.3438,161.5 35.9688,160.9219 L35.9688,163.6406 Z "/><text fill="#000000" font-family="sans-serif" font-size="12" lengthAdjust="spacingAndGlyphs" textLength="43" x="47" y="162.1543">Engine</text><line style="stroke: #A80036; stroke-width: 1.5;" x1="19" x2="92" y1="174" y2="174"/><line style="stroke: #A80036; stroke-width: 1.5;" x1="19" x2="92" y1="182" y2="182"/><!--MD5=[81348e79ed31ab560c01d4053cd4a360]
link Car to Engine--><path d="M55.5,82.03 C55.5,99.48 55.5,120.15 55.5,136.49 " fill="none" id="Car-&gt;Engine" style="stroke: #A80036; stroke-width: 1.0;"/><polygon fill="#A80036" points="55.5,141.85,59.5,132.85,55.5,136.85,51.5,132.85,55.5,141.85" style="stroke: #A80036; stroke-width: 1.0;"/><!--MD5=[0b7a7bd5bc5991745d5a5f41a979fa4a]
@startuml
class Car {
  +String model
  +drive()
}
class Engine
Car - -> Engine
@enduml

PlantUML version 1.2020.02(Sun Mar 01 10:22:07 UTC 2020)
(GPL source distribution)
Java Runtime: OpenJDK Runtime Environment
JVM: OpenJDK 64-Bit Server VM
Java Version: 17.0.16+8
Operating System: Linux
Default Encoding: UTF-8
Language: en
Country: null
--></g></svg>